<svg width="102" height="19" viewBox="0 0 102 19" fill="none" xmlns="http://www.w3.org/2000/svg">
<path d="M11.072 6.304C10.608 6.304 10.256 6.184 10.016 5.944C9.792 5.704 9.68 5.304 9.68 4.744V3.4C9.088 3.272 8.504 3.208 7.928 3.208C6.408 3.208 5.2 3.848 4.304 5.128C3.424 6.392 2.984 8.248 2.984 10.696C2.984 13.304 3.416 15.136 4.28 16.192C5.144 17.232 6.416 17.752 8.096 17.752C9.088 17.752 10.136 17.52 11.24 17.056L11.696 16.864C11.792 16.832 11.856 16.816 11.888 16.816C12.048 16.816 12.184 16.896 12.296 17.056C12.408 17.2 12.464 17.36 12.464 17.536C12.464 17.76 12.36 17.92 12.152 18.016L11.744 18.184C11.088 18.456 10.424 18.664 9.752 18.808C9.096 18.936 8.32 19 7.424 19C4.992 19 3.192 18.28 2.024 16.84C0.856 15.384 0.272 13.32 0.272 10.648C0.272 8.712 0.584 7.096 1.208 5.8C1.848 4.504 2.72 3.544 3.824 2.92C4.928 2.296 6.192 1.984 7.616 1.984C8.896 1.984 10.064 2.152 11.12 2.488C11.504 2.616 11.76 2.76 11.888 2.92C12.032 3.064 12.104 3.312 12.104 3.664V5.104C12.104 5.52 12.016 5.824 11.84 6.016C11.68 6.208 11.424 6.304 11.072 6.304ZM17.4813 17.368C17.4813 18.04 17.3693 18.48 17.1453 18.688C16.9213 18.896 16.5213 19 15.9453 19C15.5773 19 15.3213 18.912 15.1773 18.736C15.0493 18.544 14.9853 18.256 14.9853 17.872V1.888C14.9853 1.504 15.0493 1.224 15.1773 1.048C15.3213 0.855999 15.5773 0.759999 15.9453 0.759999C16.4893 0.759999 16.8813 0.911999 17.1213 1.216C17.3613 1.52 17.4813 2.024 17.4813 2.728V17.368ZM28.4113 16.72C27.8833 17.504 27.2753 18.08 26.5872 18.448C25.9153 18.816 25.1153 19 24.1873 19C23.0033 19 22.0993 18.712 21.4753 18.136C20.8673 17.544 20.5633 16.752 20.5633 15.76C20.5633 14.544 21.0113 13.544 21.9073 12.76C22.8193 11.96 24.3873 11.56 26.6113 11.56H28.3633V10.888C28.3633 9.8 28.1713 9.032 27.7873 8.584C27.4193 8.136 26.8113 7.912 25.9633 7.912C25.1633 7.912 24.4593 8.248 23.8513 8.92C23.3393 9.48 22.8513 9.76 22.3873 9.76C22.1153 9.76 21.9073 9.688 21.7633 9.544C21.6193 9.384 21.5473 9.184 21.5473 8.944C21.5473 8.64 21.6593 8.384 21.8833 8.176C22.1073 7.968 22.4353 7.776 22.8673 7.6C23.3793 7.392 23.9553 7.232 24.5953 7.12C25.2513 7.008 25.8673 6.952 26.4433 6.952C27.5953 6.952 28.4913 7.112 29.1313 7.432C29.7873 7.752 30.2433 8.224 30.4993 8.848C30.7553 9.472 30.8833 10.288 30.8833 11.296V17.872C30.8833 18.256 30.8193 18.544 30.6913 18.736C30.5633 18.912 30.3153 19 29.9473 19C29.4193 19 29.0433 18.824 28.8193 18.472C28.5953 18.104 28.4833 17.528 28.4833 16.744L28.4113 16.72ZM26.9953 12.568C24.3713 12.568 23.0592 13.52 23.0592 15.424C23.0592 16.736 23.7553 17.392 25.1473 17.392C25.5793 17.392 26.0433 17.288 26.5393 17.08C27.0513 16.856 27.4833 16.536 27.8353 16.12C28.2033 15.688 28.3873 15.176 28.3873 14.584V12.568H26.9953ZM41.0088 16.072C41.0088 15.624 40.8728 15.256 40.6008 14.968C40.3448 14.664 40.0088 14.424 39.5928 14.248C39.1928 14.056 38.6168 13.832 37.8648 13.576C36.9528 13.272 36.2328 12.992 35.7048 12.736C35.1928 12.48 34.7768 12.152 34.4568 11.752C34.1368 11.336 33.9768 10.8 33.9768 10.144C33.9768 9.312 34.2248 8.664 34.7208 8.2C35.2328 7.72 35.8248 7.392 36.4968 7.216C37.1688 7.04 37.8088 6.952 38.4168 6.952C39.7448 6.952 40.7848 7.152 41.5368 7.552C41.9048 7.744 42.2088 7.976 42.4488 8.248C42.6888 8.52 42.8088 8.824 42.8088 9.16C42.8088 9.416 42.7128 9.624 42.5208 9.784C42.3448 9.944 42.1288 10.024 41.8728 10.024C41.5368 10.024 41.2648 9.952 41.0568 9.808C40.8648 9.664 40.7048 9.448 40.5768 9.16C40.4008 8.776 40.1448 8.472 39.8088 8.248C39.4728 8.024 39.0168 7.912 38.4408 7.912C37.8488 7.912 37.3528 8.064 36.9528 8.368C36.5688 8.656 36.3768 9.096 36.3768 9.688C36.3768 10.088 36.4968 10.432 36.7368 10.72C36.9768 10.992 37.2888 11.216 37.6728 11.392C38.0568 11.568 38.5928 11.776 39.2808 12.016C40.1768 12.336 40.8968 12.624 41.4408 12.88C42.0008 13.136 42.4728 13.472 42.8568 13.888C43.2568 14.304 43.4568 14.816 43.4568 15.424C43.4568 16.496 42.9928 17.36 42.0648 18.016C41.1528 18.672 39.9608 19 38.4888 19C37.8008 19 37.1448 18.928 36.5208 18.784C35.9128 18.64 35.4008 18.456 34.9848 18.232C34.2008 17.832 33.8088 17.304 33.8088 16.648C33.8088 16.392 33.9048 16.184 34.0968 16.024C34.3048 15.848 34.5208 15.76 34.7448 15.76C35.3688 15.76 35.8088 16.048 36.0648 16.624C36.2728 17.04 36.5528 17.384 36.9048 17.656C37.2728 17.912 37.8168 18.04 38.5368 18.04C39.2408 18.04 39.8248 17.88 40.2888 17.56C40.7688 17.224 41.0088 16.728 41.0088 16.072ZM52.8682 16.072C52.8682 15.624 52.7322 15.256 52.4602 14.968C52.2042 14.664 51.8682 14.424 51.4522 14.248C51.0522 14.056 50.4762 13.832 49.7242 13.576C48.8122 13.272 48.0922 12.992 47.5642 12.736C47.0522 12.48 46.6362 12.152 46.3162 11.752C45.9962 11.336 45.8362 10.8 45.8362 10.144C45.8362 9.312 46.0842 8.664 46.5802 8.2C47.0922 7.72 47.6842 7.392 48.3562 7.216C49.0282 7.04 49.6682 6.952 50.2762 6.952C51.6042 6.952 52.6442 7.152 53.3962 7.552C53.7642 7.744 54.0682 7.976 54.3082 8.248C54.5482 8.52 54.6682 8.824 54.6682 9.16C54.6682 9.416 54.5722 9.624 54.3802 9.784C54.2042 9.944 53.9882 10.024 53.7322 10.024C53.3962 10.024 53.1242 9.952 52.9162 9.808C52.7242 9.664 52.5642 9.448 52.4362 9.16C52.2602 8.776 52.0042 8.472 51.6682 8.248C51.3322 8.024 50.8762 7.912 50.3002 7.912C49.7082 7.912 49.2122 8.064 48.8122 8.368C48.4282 8.656 48.2362 9.096 48.2362 9.688C48.2362 10.088 48.3562 10.432 48.5962 10.72C48.8362 10.992 49.1482 11.216 49.5322 11.392C49.9162 11.568 50.4522 11.776 51.1402 12.016C52.0362 12.336 52.7562 12.624 53.3002 12.88C53.8602 13.136 54.3322 13.472 54.7162 13.888C55.1162 14.304 55.3162 14.816 55.3162 15.424C55.3162 16.496 54.8522 17.36 53.9242 18.016C53.0122 18.672 51.8202 19 50.3482 19C49.6602 19 49.0042 18.928 48.3802 18.784C47.7722 18.64 47.2602 18.456 46.8442 18.232C46.0602 17.832 45.6682 17.304 45.6682 16.648C45.6682 16.392 45.7642 16.184 45.9562 16.024C46.1642 15.848 46.3802 15.76 46.6042 15.76C47.2282 15.76 47.6682 16.048 47.9242 16.624C48.1322 17.04 48.4122 17.384 48.7642 17.656C49.1322 17.912 49.6762 18.04 50.3962 18.04C51.1002 18.04 51.6842 17.88 52.1482 17.56C52.6282 17.224 52.8682 16.728 52.8682 16.072ZM60.8876 17.368C60.8876 18.04 60.7756 18.48 60.5516 18.688C60.3276 18.896 59.9276 19 59.3516 19C58.9836 19 58.7276 18.912 58.5836 18.736C58.4556 18.544 58.3916 18.256 58.3916 17.872V8.08C58.3916 7.696 58.4556 7.416 58.5836 7.24C58.7276 7.048 58.9836 6.952 59.3516 6.952C59.8796 6.952 60.2636 7.088 60.5036 7.36C60.7596 7.616 60.8876 8.016 60.8876 8.56V17.368ZM58.1036 3.904C58.1036 3.488 58.2476 3.136 58.5356 2.848C58.8236 2.56 59.1756 2.416 59.5916 2.416C59.9916 2.416 60.3356 2.56 60.6236 2.848C60.9276 3.136 61.0796 3.488 61.0796 3.904C61.0796 4.304 60.9276 4.656 60.6236 4.96C60.3356 5.248 59.9916 5.392 59.5916 5.392C59.1756 5.392 58.8236 5.248 58.5356 4.96C58.2476 4.656 58.1036 4.304 58.1036 3.904ZM63.5135 7.6C63.5135 7.36 63.5775 7.2 63.7055 7.12C63.8495 7.024 64.0335 6.968 64.2575 6.952H65.6255C65.6735 5.576 65.8735 4.512 66.2255 3.76C66.5775 2.992 67.0495 2.368 67.6415 1.888C68.0735 1.536 68.6095 1.264 69.2495 1.072C69.9055 0.863999 70.5455 0.759999 71.1695 0.759999C71.7135 0.759999 72.2095 0.831999 72.6575 0.975999C73.1055 1.12 73.4575 1.304 73.7135 1.528C73.9855 1.752 74.1215 1.976 74.1215 2.2C74.1215 2.456 74.0335 2.664 73.8575 2.824C73.6975 2.968 73.4655 3.04 73.1615 3.04C72.9535 3.04 72.7615 2.976 72.5855 2.848C72.4255 2.72 72.2575 2.552 72.0815 2.344C71.9535 2.184 71.7375 2.04 71.4335 1.912C71.1455 1.784 70.8575 1.72 70.5695 1.72C69.9295 1.72 69.3535 1.976 68.8415 2.488C68.3455 3 68.0975 3.88 68.0975 5.128V6.952H73.4015C73.9295 6.952 74.3135 7.088 74.5535 7.36C74.8095 7.616 74.9375 8.016 74.9375 8.56V17.368C74.9375 18.04 74.8255 18.48 74.6015 18.688C74.3775 18.896 73.9775 19 73.4015 19C73.0335 19 72.7775 18.912 72.6335 18.736C72.5055 18.544 72.4415 18.256 72.4415 17.872V8.104H68.0975V17.368C68.0975 18.04 67.9855 18.48 67.7615 18.688C67.5375 18.896 67.1375 19 66.5615 19C66.1935 19 65.9375 18.912 65.7935 18.736C65.6655 18.544 65.6015 18.256 65.6015 17.872V8.104H64.2815C64.0095 8.104 63.8095 8.064 63.6815 7.984C63.5695 7.904 63.5135 7.776 63.5135 7.6ZM87.4166 15.976C87.5766 15.8 87.7766 15.712 88.0166 15.712C88.1606 15.712 88.2886 15.76 88.4006 15.856C88.5126 15.952 88.5686 16.072 88.5686 16.216C88.5686 16.504 88.4646 16.776 88.2566 17.032C87.2006 18.344 85.7286 19 83.8406 19C81.9686 19 80.5526 18.496 79.5926 17.488C78.6486 16.464 78.1766 15.056 78.1766 13.264C78.1766 11.216 78.6566 9.656 79.6166 8.584C80.5766 7.496 81.9686 6.952 83.7926 6.952C85.2486 6.952 86.4166 7.368 87.2966 8.2C88.1766 9.032 88.6166 10.224 88.6166 11.776C88.6166 12.56 88.1606 12.952 87.2486 12.952H80.7926C80.7766 13.08 80.7686 13.256 80.7686 13.48C80.7686 14.856 81.0406 15.944 81.5846 16.744C82.1286 17.544 82.9686 17.944 84.1046 17.944C84.8726 17.944 85.4806 17.784 85.9286 17.464C86.3766 17.144 86.7206 16.84 86.9606 16.552C87.2006 16.248 87.3526 16.056 87.4166 15.976ZM83.6486 7.912C82.8806 7.912 82.2486 8.24 81.7526 8.896C81.2566 9.552 80.9606 10.568 80.8646 11.944H85.3526C85.6406 11.944 85.8486 11.896 85.9766 11.8C86.1046 11.688 86.1686 11.504 86.1686 11.248C86.1686 10.176 85.9126 9.352 85.4006 8.776C84.9046 8.2 84.3206 7.912 83.6486 7.912ZM96.4979 6.952C97.2819 6.952 98.0099 7.088 98.6819 7.36V2.728C98.6819 2.024 98.8019 1.52 99.0419 1.216C99.2819 0.911999 99.6739 0.759999 100.218 0.759999C100.586 0.759999 100.834 0.855999 100.962 1.048C101.106 1.224 101.178 1.504 101.178 1.888V17.872C101.178 18.256 101.114 18.544 100.986 18.736C100.858 18.912 100.61 19 100.242 19C99.2659 19 98.7779 18.168 98.7779 16.504L98.7059 16.48C98.2419 17.248 97.7139 17.864 97.1219 18.328C96.5299 18.776 95.7859 19 94.8899 19C93.7219 19 92.7459 18.568 91.9619 17.704C91.1779 16.824 90.7859 15.424 90.7859 13.504C90.7859 11.264 91.2819 9.616 92.2739 8.56C93.2659 7.488 94.6739 6.952 96.4979 6.952ZM93.3779 13.312C93.3779 14.752 93.6019 15.792 94.0499 16.432C94.5139 17.072 95.1139 17.392 95.8499 17.392C96.2819 17.392 96.7219 17.24 97.1699 16.936C97.6179 16.616 97.9859 16.224 98.2739 15.76C98.5619 15.28 98.7059 14.808 98.7059 14.344V9.328C98.7059 8.976 98.5059 8.656 98.1059 8.368C97.7059 8.064 97.1699 7.912 96.4979 7.912C95.4739 7.912 94.6979 8.312 94.1699 9.112C93.6419 9.896 93.3779 11.296 93.3779 13.312Z" fill="white"/>
</svg>
